<mxfile host="app.diagrams.net" modified="2024-07-12T08:03:00.162Z" agent="Mozilla/5.0 (Macintosh; Intel Mac OS X 10_15_7) AppleWebKit/605.1.15 (KHTML, like Gecko) Version/17.4.1 Safari/605.1.15" etag="dpUrxmwTWAtRvhY6mdE_" version="24.6.4" type="github">
  <diagram name="Page-1" id="ThYD0BwOZ6zonaZwvDUJ">
    <mxGraphModel dx="961" dy="523" grid="1" gridSize="10" guides="1" tooltips="1" connect="1" arrows="1" fold="1" page="1" pageScale="1" pageWidth="1169" pageHeight="827" math="0" shadow="0">
      <root>
        <mxCell id="0" />
        <mxCell id="1" parent="0" />
        <mxCell id="J-DvTtKIvJHJ2Xqvti7w-1" value="Start" style="rounded=1;whiteSpace=wrap;html=1;fillColor=#ffe6cc;strokeColor=#d79b00;" parent="1" vertex="1">
          <mxGeometry x="80" y="650" width="80" height="30" as="geometry" />
        </mxCell>
        <mxCell id="J-DvTtKIvJHJ2Xqvti7w-2" value="Agent Commission (Monetary)" style="rounded=0;whiteSpace=wrap;html=1;" parent="1" vertex="1">
          <mxGeometry x="210" y="610" width="110" height="40" as="geometry" />
        </mxCell>
        <mxCell id="J-DvTtKIvJHJ2Xqvti7w-3" value="Agent targets are loaded in CRM" style="rounded=0;whiteSpace=wrap;html=1;" parent="1" vertex="1">
          <mxGeometry x="320" y="245" width="100" height="60" as="geometry" />
        </mxCell>
        <mxCell id="J-DvTtKIvJHJ2Xqvti7w-4" value="Live Agent&#39;s achievements are derived" style="rounded=0;whiteSpace=wrap;html=1;" parent="1" vertex="1">
          <mxGeometry x="450" y="247.5" width="110" height="55" as="geometry" />
        </mxCell>
        <mxCell id="J-DvTtKIvJHJ2Xqvti7w-5" value="Policy module with Agent ID mapping" style="rounded=0;whiteSpace=wrap;html=1;" parent="1" vertex="1">
          <mxGeometry x="457.5" y="335" width="95" height="50" as="geometry" />
        </mxCell>
        <mxCell id="J-DvTtKIvJHJ2Xqvti7w-6" value="Targets vs achievements comparison" style="rounded=0;whiteSpace=wrap;html=1;" parent="1" vertex="1">
          <mxGeometry x="590" y="252.5" width="100" height="45" as="geometry" />
        </mxCell>
        <mxCell id="J-DvTtKIvJHJ2Xqvti7w-7" value="Sales manager engage their agents to achieve their targets" style="rounded=0;whiteSpace=wrap;html=1;" parent="1" vertex="1">
          <mxGeometry x="740" y="150" width="120" height="60" as="geometry" />
        </mxCell>
        <mxCell id="J-DvTtKIvJHJ2Xqvti7w-8" value="Targets vs achieved status mail or SMS sent to agents" style="rounded=0;whiteSpace=wrap;html=1;" parent="1" vertex="1">
          <mxGeometry x="740" y="245" width="120" height="60" as="geometry" />
        </mxCell>
        <mxCell id="J-DvTtKIvJHJ2Xqvti7w-9" value="Final Incentives derived for the month" style="rounded=0;whiteSpace=wrap;html=1;" parent="1" vertex="1">
          <mxGeometry x="745" y="340" width="110" height="40" as="geometry" />
        </mxCell>
        <mxCell id="J-DvTtKIvJHJ2Xqvti7w-11" value="Incentives data pushed to GL for payout" style="rounded=0;whiteSpace=wrap;html=1;" parent="1" vertex="1">
          <mxGeometry x="740" y="440" width="120" height="60" as="geometry" />
        </mxCell>
        <mxCell id="J-DvTtKIvJHJ2Xqvti7w-15" value="" style="endArrow=classic;html=1;rounded=0;exitX=1;exitY=0.5;exitDx=0;exitDy=0;entryX=0;entryY=0.5;entryDx=0;entryDy=0;" parent="1" source="J-DvTtKIvJHJ2Xqvti7w-3" target="J-DvTtKIvJHJ2Xqvti7w-4" edge="1">
          <mxGeometry width="50" height="50" relative="1" as="geometry">
            <mxPoint x="440" y="350" as="sourcePoint" />
            <mxPoint x="490" y="300" as="targetPoint" />
          </mxGeometry>
        </mxCell>
        <mxCell id="J-DvTtKIvJHJ2Xqvti7w-16" value="" style="endArrow=classic;html=1;rounded=0;exitX=1;exitY=0.5;exitDx=0;exitDy=0;entryX=0;entryY=0.5;entryDx=0;entryDy=0;" parent="1" source="J-DvTtKIvJHJ2Xqvti7w-4" target="J-DvTtKIvJHJ2Xqvti7w-6" edge="1">
          <mxGeometry width="50" height="50" relative="1" as="geometry">
            <mxPoint x="440" y="350" as="sourcePoint" />
            <mxPoint x="490" y="300" as="targetPoint" />
          </mxGeometry>
        </mxCell>
        <mxCell id="J-DvTtKIvJHJ2Xqvti7w-17" value="" style="endArrow=classic;html=1;rounded=0;exitX=1;exitY=0.5;exitDx=0;exitDy=0;entryX=0;entryY=0.5;entryDx=0;entryDy=0;" parent="1" source="J-DvTtKIvJHJ2Xqvti7w-6" target="J-DvTtKIvJHJ2Xqvti7w-7" edge="1">
          <mxGeometry width="50" height="50" relative="1" as="geometry">
            <mxPoint x="440" y="350" as="sourcePoint" />
            <mxPoint x="490" y="300" as="targetPoint" />
            <Array as="points">
              <mxPoint x="710" y="275" />
              <mxPoint x="710" y="180" />
            </Array>
          </mxGeometry>
        </mxCell>
        <mxCell id="J-DvTtKIvJHJ2Xqvti7w-18" value="" style="endArrow=classic;html=1;rounded=0;exitX=1;exitY=0.5;exitDx=0;exitDy=0;entryX=0;entryY=0.5;entryDx=0;entryDy=0;" parent="1" source="J-DvTtKIvJHJ2Xqvti7w-6" target="J-DvTtKIvJHJ2Xqvti7w-8" edge="1">
          <mxGeometry width="50" height="50" relative="1" as="geometry">
            <mxPoint x="440" y="350" as="sourcePoint" />
            <mxPoint x="490" y="300" as="targetPoint" />
          </mxGeometry>
        </mxCell>
        <mxCell id="J-DvTtKIvJHJ2Xqvti7w-19" value="" style="endArrow=classic;html=1;rounded=0;exitX=1;exitY=0.5;exitDx=0;exitDy=0;entryX=0;entryY=0.5;entryDx=0;entryDy=0;" parent="1" source="J-DvTtKIvJHJ2Xqvti7w-6" target="J-DvTtKIvJHJ2Xqvti7w-9" edge="1">
          <mxGeometry width="50" height="50" relative="1" as="geometry">
            <mxPoint x="440" y="350" as="sourcePoint" />
            <mxPoint x="490" y="300" as="targetPoint" />
            <Array as="points">
              <mxPoint x="710" y="275" />
              <mxPoint x="710" y="360" />
            </Array>
          </mxGeometry>
        </mxCell>
        <mxCell id="J-DvTtKIvJHJ2Xqvti7w-20" value="" style="endArrow=classic;html=1;rounded=0;exitX=0.5;exitY=1;exitDx=0;exitDy=0;entryX=0.5;entryY=0;entryDx=0;entryDy=0;" parent="1" source="J-DvTtKIvJHJ2Xqvti7w-9" target="J-DvTtKIvJHJ2Xqvti7w-11" edge="1">
          <mxGeometry width="50" height="50" relative="1" as="geometry">
            <mxPoint x="440" y="350" as="sourcePoint" />
            <mxPoint x="490" y="300" as="targetPoint" />
          </mxGeometry>
        </mxCell>
        <mxCell id="J-DvTtKIvJHJ2Xqvti7w-21" value="" style="endArrow=classic;html=1;rounded=0;exitX=0.5;exitY=0;exitDx=0;exitDy=0;entryX=0.5;entryY=1;entryDx=0;entryDy=0;" parent="1" source="J-DvTtKIvJHJ2Xqvti7w-5" target="J-DvTtKIvJHJ2Xqvti7w-4" edge="1">
          <mxGeometry width="50" height="50" relative="1" as="geometry">
            <mxPoint x="440" y="350" as="sourcePoint" />
            <mxPoint x="490" y="300" as="targetPoint" />
          </mxGeometry>
        </mxCell>
        <mxCell id="J-DvTtKIvJHJ2Xqvti7w-22" value="" style="endArrow=classic;html=1;rounded=0;exitX=0.5;exitY=1;exitDx=0;exitDy=0;entryX=0.5;entryY=0;entryDx=0;entryDy=0;" parent="1" source="J-DvTtKIvJHJ2Xqvti7w-11" target="J-DvTtKIvJHJ2Xqvti7w-23" edge="1">
          <mxGeometry width="50" height="50" relative="1" as="geometry">
            <mxPoint x="450" y="410" as="sourcePoint" />
            <mxPoint x="800" y="540" as="targetPoint" />
          </mxGeometry>
        </mxCell>
        <mxCell id="J-DvTtKIvJHJ2Xqvti7w-23" value="End" style="rounded=1;whiteSpace=wrap;html=1;fillColor=#ffe6cc;strokeColor=#d79b00;" parent="1" vertex="1">
          <mxGeometry x="762.5" y="536" width="75" height="30" as="geometry" />
        </mxCell>
        <mxCell id="i34Ua2_L6CuE7etVKmvK-1" value="Agent Reward (Non- Monetary)" style="rounded=0;whiteSpace=wrap;html=1;" vertex="1" parent="1">
          <mxGeometry x="210" y="680" width="110" height="40" as="geometry" />
        </mxCell>
        <mxCell id="i34Ua2_L6CuE7etVKmvK-4" value="" style="endArrow=classic;html=1;rounded=0;exitX=1;exitY=0.5;exitDx=0;exitDy=0;entryX=0;entryY=0.5;entryDx=0;entryDy=0;" edge="1" parent="1" source="J-DvTtKIvJHJ2Xqvti7w-1" target="J-DvTtKIvJHJ2Xqvti7w-2">
          <mxGeometry width="50" height="50" relative="1" as="geometry">
            <mxPoint x="380" y="670" as="sourcePoint" />
            <mxPoint x="430" y="620" as="targetPoint" />
            <Array as="points">
              <mxPoint x="180" y="665" />
              <mxPoint x="180" y="630" />
            </Array>
          </mxGeometry>
        </mxCell>
        <mxCell id="i34Ua2_L6CuE7etVKmvK-5" value="" style="endArrow=classic;html=1;rounded=0;exitX=1;exitY=0.5;exitDx=0;exitDy=0;entryX=0;entryY=0.5;entryDx=0;entryDy=0;" edge="1" parent="1" source="J-DvTtKIvJHJ2Xqvti7w-1" target="i34Ua2_L6CuE7etVKmvK-1">
          <mxGeometry width="50" height="50" relative="1" as="geometry">
            <mxPoint x="380" y="670" as="sourcePoint" />
            <mxPoint x="430" y="620" as="targetPoint" />
            <Array as="points">
              <mxPoint x="180" y="665" />
              <mxPoint x="180" y="700" />
            </Array>
          </mxGeometry>
        </mxCell>
        <mxCell id="i34Ua2_L6CuE7etVKmvK-6" value="15% commissions on premium for policy sourced for a month" style="rounded=0;whiteSpace=wrap;html=1;" vertex="1" parent="1">
          <mxGeometry x="350" y="605" width="120" height="50" as="geometry" />
        </mxCell>
        <mxCell id="i34Ua2_L6CuE7etVKmvK-7" value="" style="endArrow=classic;html=1;rounded=0;exitX=1;exitY=0.5;exitDx=0;exitDy=0;entryX=0;entryY=0.5;entryDx=0;entryDy=0;" edge="1" parent="1" source="J-DvTtKIvJHJ2Xqvti7w-2" target="i34Ua2_L6CuE7etVKmvK-6">
          <mxGeometry width="50" height="50" relative="1" as="geometry">
            <mxPoint x="200" y="660" as="sourcePoint" />
            <mxPoint x="250" y="610" as="targetPoint" />
          </mxGeometry>
        </mxCell>
        <mxCell id="i34Ua2_L6CuE7etVKmvK-8" value="Commission and reward depends on premium bracket" style="rounded=0;whiteSpace=wrap;html=1;" vertex="1" parent="1">
          <mxGeometry x="350" y="530" width="120" height="51" as="geometry" />
        </mxCell>
        <mxCell id="i34Ua2_L6CuE7etVKmvK-9" value="" style="endArrow=classic;html=1;rounded=0;exitX=0.5;exitY=1;exitDx=0;exitDy=0;" edge="1" parent="1" source="i34Ua2_L6CuE7etVKmvK-8" target="i34Ua2_L6CuE7etVKmvK-6">
          <mxGeometry width="50" height="50" relative="1" as="geometry">
            <mxPoint x="200" y="660" as="sourcePoint" />
            <mxPoint x="250" y="610" as="targetPoint" />
          </mxGeometry>
        </mxCell>
      </root>
    </mxGraphModel>
  </diagram>
</mxfile>
